<svg width="56" height="56" viewBox="0 0 56 56" fill="none" xmlns="http://www.w3.org/2000/svg">
<path d="M38.7135 17.5702C38.724 17.5702 38.738 17.5702 38.752 17.5702C39.1177 17.5702 39.4572 17.6839 39.7355 17.8799L39.7302 17.8764C39.9332 18.0532 40.0697 18.3017 40.103 18.5817V18.5869C40.138 18.8004 40.1572 19.0454 40.1572 19.2957C40.1572 19.4094 40.1537 19.5214 40.145 19.6334V19.6177C39.7512 23.7634 38.0432 33.8172 37.1752 38.4582C36.8077 40.4234 36.085 41.0814 35.385 41.1444C33.8642 41.2862 32.7092 40.1399 31.2357 39.1739C28.9292 37.6602 27.6255 36.7187 25.3872 35.2434C22.799 33.5407 24.4772 32.6009 25.9507 31.0714C26.3375 30.6689 33.0417 24.5702 33.173 24.0172C33.18 23.9839 33.1835 23.9472 33.1835 23.9087C33.1835 23.7722 33.1327 23.6479 33.0505 23.5534C32.9595 23.4939 32.8457 23.4607 32.7267 23.4607C32.648 23.4607 32.5727 23.4764 32.5027 23.5027L32.5062 23.5009C32.2752 23.5534 28.5909 25.9883 21.4532 30.8054C20.6745 31.4197 19.691 31.8082 18.62 31.8537H18.6095C17.0922 31.6699 15.715 31.3322 14.4077 30.8509L14.5372 30.8929C12.8957 30.3574 11.592 30.0757 11.704 29.1692C11.7635 28.6979 12.4133 28.2154 13.6535 27.7219C21.2928 24.3934 26.3871 22.1995 28.9362 21.1402C31.7485 19.6474 35.0087 18.4189 38.437 17.6227L38.7117 17.5684L38.7135 17.5702ZM27.8775 1.79395C13.349 1.82895 1.58374 13.6152 1.58374 28.1489C1.58374 42.7037 13.3822 54.5039 27.9387 54.5039C42.4952 54.5039 54.2937 42.7054 54.2937 28.1489C54.2937 13.6152 42.5285 1.82895 28.0035 1.79395H28C27.9592 1.79395 27.9183 1.79395 27.8775 1.79395Z" fill="white"/>
</svg>
