<svg width="54" height="54" viewBox="0 0 54 54" fill="none" xmlns="http://www.w3.org/2000/svg">
<path d="M13.5315 18.0138C13.7886 15.9804 16.4312 13.2168 18.5285 13.5235L18.5251 13.5201C20.5662 13.908 22.1818 17.4209 23.0929 19.0005C23.7384 20.1465 23.3192 21.3077 22.7171 21.7977C21.9049 22.4524 20.6347 23.3557 20.9012 24.2626C21.375 25.875 27 31.5 29.7666 33.0991C30.8138 33.7043 31.5731 32.108 32.2216 31.2901C32.6927 30.661 33.8549 30.285 34.9983 30.906C36.7061 31.9005 38.3148 33.0563 39.8025 34.3575C40.5455 34.9785 40.7198 35.8963 40.205 36.8662C39.2983 38.5747 36.6757 40.8276 34.772 40.3697C31.4469 39.5703 18 34.3575 13.6807 19.2555C13.4378 18.5411 13.499 18.271 13.5315 18.0138Z" fill="white" stroke="black" stroke-width="0.008"/>
<path fill-rule="evenodd" clip-rule="evenodd" d="M27 51.75C24.2469 51.75 22.7236 51.4546 20.25 50.625L15.5125 52.9938C12.5204 54.4898 9 52.3141 9 48.9688V43.875C4.15474 39.357 2.25 34.1476 2.25 27C2.25 13.331 13.331 2.25 27 2.25C40.669 2.25 51.75 13.331 51.75 27C51.75 40.669 40.669 51.75 27 51.75ZM13.5 41.9182L12.0689 40.5837C8.30446 37.0737 6.75 33.1495 6.75 27C6.75 15.8162 15.8162 6.75 27 6.75C38.1838 6.75 47.25 15.8162 47.25 27C47.25 38.1838 38.1838 47.25 27 47.25C24.7822 47.25 23.742 47.0498 21.6809 46.3586L19.9091 45.7643L13.5 48.9688V41.9182Z" fill="white" stroke="black" stroke-width="0.008"/>
</svg>
